<?xml version="1.0" standalone="no"?>
<!DOCTYPE svg PUBLIC "-//W3C//DTD SVG 20010904//EN"
 "http://www.w3.org/TR/2001/REC-SVG-20010904/DTD/svg10.dtd">
<svg version="1.0" xmlns="http://www.w3.org/2000/svg"
 width="50.000000pt" height="50.000000pt" viewBox="0 0 50.000000 50.000000"
 preserveAspectRatio="xMidYMid meet">

<g transform="translate(0.000000,50.000000) scale(0.100000,-0.100000)"
fill="#6f2da8" stroke="none">
<path d="M74 457 c-2 -7 -3 -105 -2 -217 l3 -205 40 0 40 0 5 139 5 139 94
-142 c94 -142 95 -142 130 -139 l36 3 0 215 0 215 -40 0 -40 0 -5 -139 -5
-139 -94 141 c-90 136 -95 142 -128 142 -18 0 -36 -6 -39 -13z"/>
</g>
</svg>
