<?xml version="1.0" standalone="no"?>
<!DOCTYPE svg PUBLIC "-//W3C//DTD SVG 20010904//EN"
 "http://www.w3.org/TR/2001/REC-SVG-20010904/DTD/svg10.dtd">
<svg version="1.0" xmlns="http://www.w3.org/2000/svg"
 width="64.000000pt" height="64.000000pt" viewBox="0 0 64.000000 64.000000"
 preserveAspectRatio="xMidYMid meet">

<g transform="translate(0.000000,64.000000) scale(0.100000,-0.100000)"
fill="#000000" stroke="none">
<path d="M124 548 c-38 -18 -44 -51 -44 -228 0 -180 6 -210 47 -229 32 -15
354 -15 386 0 41 19 47 49 47 229 0 180 -6 210 -47 229 -31 14 -360 14 -389
-1z m121 -113 c0 -27 -3 -30 -30 -30 -21 0 -31 5 -33 18 -6 33 6 49 35 45 24
-3 28 -8 28 -33z m200 -80 c22 -22 25 -32 25 -105 0 -79 0 -80 -25 -80 -24 0
-25 2 -25 64 0 62 -14 96 -40 96 -26 0 -40 -34 -40 -96 0 -62 -1 -64 -25 -64
l-25 0 0 100 0 100 25 0 c14 0 25 -4 25 -9 0 -6 12 -3 28 5 37 19 49 18 77
-11z m-205 -85 l0 -100 -25 0 -25 0 0 100 0 100 25 0 25 0 0 -100z"/>
</g>
</svg>
