<?xml version="1.0" standalone="no"?>
<!DOCTYPE svg PUBLIC "-//W3C//DTD SVG 20010904//EN"
 "http://www.w3.org/TR/2001/REC-SVG-20010904/DTD/svg10.dtd">
<svg version="1.0" xmlns="http://www.w3.org/2000/svg"
 width="64.000000pt" height="64.000000pt" viewBox="0 0 64.000000 64.000000"
 preserveAspectRatio="xMidYMid meet">

<g transform="translate(0.000000,64.000000) scale(0.100000,-0.100000)"
fill="#000000" stroke="none">
<path d="M130 547 c-46 -23 -51 -48 -48 -239 4 -239 -13 -223 238 -223 253 0
235 -18 235 235 0 251 16 234 -223 238 -129 2 -184 -1 -202 -11z m115 -112 c0
-27 -3 -30 -30 -30 -21 0 -31 5 -33 18 -6 33 6 49 35 45 24 -3 28 -8 28 -33z
m205 -75 c17 -17 20 -33 20 -105 0 -84 0 -85 -25 -85 -23 0 -25 3 -25 53 0 67
-8 94 -28 102 -30 11 -52 -31 -52 -96 0 -56 -1 -59 -25 -59 l-25 0 0 100 0
100 25 0 c14 0 25 -5 25 -11 0 -5 10 -3 22 5 31 22 64 20 88 -4z m-210 -90 l0
-100 -25 0 -25 0 0 100 0 100 25 0 25 0 0 -100z"/>
</g>
</svg>
